<?xml version="1.0" encoding="UTF-8" standalone="no"?>
<!-- Created with Inkscape (http://www.inkscape.org/) -->

<svg
   xmlns:dc="http://purl.org/dc/elements/1.1/"
   xmlns:cc="http://creativecommons.org/ns#"
   xmlns:rdf="http://www.w3.org/1999/02/22-rdf-syntax-ns#"
   xmlns:svg="http://www.w3.org/2000/svg"
   xmlns="http://www.w3.org/2000/svg"
   xmlns:sodipodi="http://sodipodi.sourceforge.net/DTD/sodipodi-0.dtd"
   xmlns:inkscape="http://www.inkscape.org/namespaces/inkscape"
   width="400"
   height="400"
   id="svg4611"
   sodipodi:version="0.32"
   inkscape:version="0.92.4 (5da689c313, 2019-01-14)"
   version="1.0"
   sodipodi:docname="Greek_uc_Omega.svg">
  <defs
     id="defs4613" />
  <sodipodi:namedview
     id="base"
     pagecolor="#ffffff"
     bordercolor="#666666"
     borderopacity="1.0"
     gridtolerance="10000"
     guidetolerance="10"
     objecttolerance="1.6"
     inkscape:pageopacity="0.0"
     inkscape:pageshadow="2"
     inkscape:zoom="0.7"
     inkscape:cx="365.90919"
     inkscape:cy="190.61883"
     inkscape:document-units="px"
     inkscape:current-layer="layer1"
     inkscape:object-bbox="true"
     inkscape:object-points="true"
     inkscape:object-nodes="true"
     inkscape:grid-points="true"
     inkscape:window-width="1920"
     inkscape:window-height="1017"
     inkscape:window-x="-8"
     inkscape:window-y="-8"
     width="400px"
     height="400px"
     showgrid="false"
     inkscape:window-maximized="1" />
  <metadata
     id="metadata4616">
    <rdf:RDF>
      <cc:Work
         rdf:about="">
        <dc:format>image/svg+xml</dc:format>
        <dc:type
           rdf:resource="http://purl.org/dc/dcmitype/StillImage" />
      </cc:Work>
    </rdf:RDF>
  </metadata>
  <g
     inkscape:label="Layer 1"
     inkscape:groupmode="layer"
     id="layer1"
     transform="translate(-256.6798,-531.7963)">
    <g
       aria-label="Ω"
       style="font-style:normal;font-weight:normal;line-height:0%;font-family:'Times New Roman';text-align:start;text-anchor:start;fill:#000000;fill-opacity:1;stroke:none;stroke-width:1px;stroke-linecap:butt;stroke-linejoin:miter;stroke-opacity:1"
       id="text5540">
      <path
         d="m 313.85614,779.23486 h 7.22656 q 0.78125,13.86719 8.20313,19.33594 7.42187,5.46875 23.63281,5.46875 h 53.32031 l -0.39062,-13.08594 q -31.05469,-6.25 -56.64063,-34.57031 -25.58593,-28.32031 -25.58593,-71.48437 0,-47.85157 35.54687,-81.64063 35.74219,-33.78906 93.16406,-33.78906 55.66407,0 91.01563,32.03125 35.35156,31.83594 35.35156,81.64062 0,40.42969 -22.07031,68.75 -21.875,28.125 -59.375,39.0625 l -1.95313,13.08594 h 54.29688 q 18.55469,0 24.41406,-7.03125 6.05469,-7.03125 6.44531,-17.77344 h 7.22657 v 61.13282 h -109.375 l 5.07812,-58.98438 q 50.39063,-15.82031 50.39063,-93.16406 0,-50.58594 -24.80469,-77.53906 -24.60938,-26.95313 -57.8125,-26.95313 -35.35156,0 -58.59375,28.71094 -23.04688,28.51562 -23.04688,73.04687 0,32.22657 10.35157,58.78907 10.35156,26.36718 39.64843,37.10937 l 3.71094,58.98438 h -109.375 z"
         style="font-size:400px;line-height:1.25;text-align:center;text-anchor:middle"
         id="path814" />
    </g>
  </g>
</svg>
